<mxfile host="app.diagrams.net" modified="2022-01-24T08:08:29.084Z" agent="5.0 (X11)" etag="RiR88EgUSJi6Nl6y17w0" version="16.4.5" type="github">
  <diagram name="Page-1" id="b520641d-4fe3-3701-9064-5fc419738815">
    <mxGraphModel dx="1673" dy="1743" grid="1" gridSize="10" guides="1" tooltips="1" connect="1" arrows="1" fold="1" page="1" pageScale="1" pageWidth="1100" pageHeight="850" background="none" math="0" shadow="0">
      <root>
        <mxCell id="0" />
        <mxCell id="1" parent="0" />
        <mxCell id="N7yXpvZXhcVjexeJMbh7-10" style="edgeStyle=orthogonalEdgeStyle;rounded=0;orthogonalLoop=1;jettySize=auto;html=1;entryX=0;entryY=0.5;entryDx=0;entryDy=0;" parent="1" source="N7yXpvZXhcVjexeJMbh7-5" target="N7yXpvZXhcVjexeJMbh7-9" edge="1">
          <mxGeometry relative="1" as="geometry">
            <mxPoint x="160" y="230" as="targetPoint" />
          </mxGeometry>
        </mxCell>
        <mxCell id="N7yXpvZXhcVjexeJMbh7-5" value="User" style="rounded=1;whiteSpace=wrap;html=1;" parent="1" vertex="1">
          <mxGeometry x="20" y="260" width="120" height="60" as="geometry" />
        </mxCell>
        <mxCell id="N7yXpvZXhcVjexeJMbh7-29" style="edgeStyle=orthogonalEdgeStyle;rounded=0;orthogonalLoop=1;jettySize=auto;html=1;entryX=0;entryY=0.5;entryDx=0;entryDy=0;" parent="1" source="N7yXpvZXhcVjexeJMbh7-9" target="N7yXpvZXhcVjexeJMbh7-26" edge="1">
          <mxGeometry relative="1" as="geometry">
            <Array as="points">
              <mxPoint x="270" y="510" />
            </Array>
          </mxGeometry>
        </mxCell>
        <mxCell id="N7yXpvZXhcVjexeJMbh7-37" style="edgeStyle=orthogonalEdgeStyle;rounded=0;orthogonalLoop=1;jettySize=auto;html=1;entryX=0;entryY=0.5;entryDx=0;entryDy=0;" parent="1" source="N7yXpvZXhcVjexeJMbh7-9" target="N7yXpvZXhcVjexeJMbh7-36" edge="1">
          <mxGeometry relative="1" as="geometry">
            <Array as="points">
              <mxPoint x="270" y="425" />
            </Array>
          </mxGeometry>
        </mxCell>
        <mxCell id="qlI09pymciYNt9oFtkRG-1" style="edgeStyle=orthogonalEdgeStyle;rounded=0;orthogonalLoop=1;jettySize=auto;html=1;" edge="1" parent="1" source="N7yXpvZXhcVjexeJMbh7-9">
          <mxGeometry relative="1" as="geometry">
            <mxPoint x="640" y="290" as="targetPoint" />
          </mxGeometry>
        </mxCell>
        <mxCell id="qlI09pymciYNt9oFtkRG-16" style="edgeStyle=orthogonalEdgeStyle;rounded=0;orthogonalLoop=1;jettySize=auto;html=1;entryX=0;entryY=0.5;entryDx=0;entryDy=0;" edge="1" parent="1" source="N7yXpvZXhcVjexeJMbh7-9" target="qlI09pymciYNt9oFtkRG-15">
          <mxGeometry relative="1" as="geometry">
            <Array as="points">
              <mxPoint x="270" y="60" />
            </Array>
          </mxGeometry>
        </mxCell>
        <mxCell id="N7yXpvZXhcVjexeJMbh7-9" value="Web Client" style="rounded=1;whiteSpace=wrap;html=1;" parent="1" vertex="1">
          <mxGeometry x="210" y="260" width="120" height="60" as="geometry" />
        </mxCell>
        <mxCell id="N7yXpvZXhcVjexeJMbh7-30" style="edgeStyle=orthogonalEdgeStyle;rounded=0;orthogonalLoop=1;jettySize=auto;html=1;entryX=0;entryY=0.5;entryDx=0;entryDy=0;" parent="1" source="N7yXpvZXhcVjexeJMbh7-26" target="N7yXpvZXhcVjexeJMbh7-28" edge="1">
          <mxGeometry relative="1" as="geometry" />
        </mxCell>
        <mxCell id="N7yXpvZXhcVjexeJMbh7-34" style="edgeStyle=orthogonalEdgeStyle;rounded=0;orthogonalLoop=1;jettySize=auto;html=1;" parent="1" source="N7yXpvZXhcVjexeJMbh7-26" edge="1">
          <mxGeometry relative="1" as="geometry">
            <mxPoint x="270" y="320" as="targetPoint" />
          </mxGeometry>
        </mxCell>
        <mxCell id="N7yXpvZXhcVjexeJMbh7-26" value="Login" style="rounded=1;whiteSpace=wrap;html=1;" parent="1" vertex="1">
          <mxGeometry x="380" y="480" width="120" height="60" as="geometry" />
        </mxCell>
        <mxCell id="N7yXpvZXhcVjexeJMbh7-32" style="edgeStyle=orthogonalEdgeStyle;rounded=0;orthogonalLoop=1;jettySize=auto;html=1;entryX=1;entryY=0.5;entryDx=0;entryDy=0;" parent="1" source="N7yXpvZXhcVjexeJMbh7-27" target="N7yXpvZXhcVjexeJMbh7-28" edge="1">
          <mxGeometry relative="1" as="geometry">
            <Array as="points">
              <mxPoint x="990" y="510" />
            </Array>
          </mxGeometry>
        </mxCell>
        <mxCell id="N7yXpvZXhcVjexeJMbh7-39" style="edgeStyle=orthogonalEdgeStyle;rounded=0;orthogonalLoop=1;jettySize=auto;html=1;entryX=1;entryY=0.5;entryDx=0;entryDy=0;" parent="1" source="N7yXpvZXhcVjexeJMbh7-27" target="N7yXpvZXhcVjexeJMbh7-36" edge="1">
          <mxGeometry relative="1" as="geometry">
            <mxPoint x="890" y="410" as="targetPoint" />
            <Array as="points">
              <mxPoint x="990" y="425" />
            </Array>
          </mxGeometry>
        </mxCell>
        <mxCell id="qlI09pymciYNt9oFtkRG-4" style="edgeStyle=orthogonalEdgeStyle;rounded=0;orthogonalLoop=1;jettySize=auto;html=1;entryX=1;entryY=0.5;entryDx=0;entryDy=0;" edge="1" parent="1" source="N7yXpvZXhcVjexeJMbh7-27" target="qlI09pymciYNt9oFtkRG-2">
          <mxGeometry relative="1" as="geometry" />
        </mxCell>
        <mxCell id="qlI09pymciYNt9oFtkRG-20" style="edgeStyle=orthogonalEdgeStyle;rounded=0;orthogonalLoop=1;jettySize=auto;html=1;entryX=1;entryY=0.5;entryDx=0;entryDy=0;" edge="1" parent="1" source="N7yXpvZXhcVjexeJMbh7-27" target="qlI09pymciYNt9oFtkRG-19">
          <mxGeometry relative="1" as="geometry">
            <Array as="points">
              <mxPoint x="990" y="-30" />
            </Array>
          </mxGeometry>
        </mxCell>
        <mxCell id="N7yXpvZXhcVjexeJMbh7-27" value="Database" style="rounded=1;whiteSpace=wrap;html=1;" parent="1" vertex="1">
          <mxGeometry x="930" y="260" width="120" height="60" as="geometry" />
        </mxCell>
        <mxCell id="N7yXpvZXhcVjexeJMbh7-31" style="edgeStyle=orthogonalEdgeStyle;rounded=0;orthogonalLoop=1;jettySize=auto;html=1;entryX=0.5;entryY=1;entryDx=0;entryDy=0;" parent="1" source="N7yXpvZXhcVjexeJMbh7-28" target="N7yXpvZXhcVjexeJMbh7-27" edge="1">
          <mxGeometry relative="1" as="geometry" />
        </mxCell>
        <mxCell id="N7yXpvZXhcVjexeJMbh7-33" style="edgeStyle=orthogonalEdgeStyle;rounded=0;orthogonalLoop=1;jettySize=auto;html=1;" parent="1" source="N7yXpvZXhcVjexeJMbh7-28" edge="1">
          <mxGeometry relative="1" as="geometry">
            <mxPoint x="500" y="510" as="targetPoint" />
          </mxGeometry>
        </mxCell>
        <mxCell id="N7yXpvZXhcVjexeJMbh7-28" value="Authentication" style="rounded=1;whiteSpace=wrap;html=1;" parent="1" vertex="1">
          <mxGeometry x="750" y="480" width="120" height="60" as="geometry" />
        </mxCell>
        <mxCell id="N7yXpvZXhcVjexeJMbh7-35" value="Third-party Image provider" style="rounded=1;whiteSpace=wrap;html=1;" parent="1" vertex="1">
          <mxGeometry x="470" y="150" width="120" height="60" as="geometry" />
        </mxCell>
        <mxCell id="N7yXpvZXhcVjexeJMbh7-38" style="edgeStyle=orthogonalEdgeStyle;rounded=0;orthogonalLoop=1;jettySize=auto;html=1;" parent="1" source="N7yXpvZXhcVjexeJMbh7-36" edge="1">
          <mxGeometry relative="1" as="geometry">
            <mxPoint x="990" y="320" as="targetPoint" />
          </mxGeometry>
        </mxCell>
        <mxCell id="N7yXpvZXhcVjexeJMbh7-40" style="edgeStyle=orthogonalEdgeStyle;rounded=0;orthogonalLoop=1;jettySize=auto;html=1;entryX=0.5;entryY=1;entryDx=0;entryDy=0;" parent="1" source="N7yXpvZXhcVjexeJMbh7-36" edge="1" target="N7yXpvZXhcVjexeJMbh7-9">
          <mxGeometry relative="1" as="geometry">
            <mxPoint x="270" y="330" as="targetPoint" />
          </mxGeometry>
        </mxCell>
        <mxCell id="N7yXpvZXhcVjexeJMbh7-36" value="Get Moods" style="rounded=1;whiteSpace=wrap;html=1;" parent="1" vertex="1">
          <mxGeometry x="550" y="395" width="120" height="60" as="geometry" />
        </mxCell>
        <mxCell id="qlI09pymciYNt9oFtkRG-23" style="edgeStyle=orthogonalEdgeStyle;rounded=0;orthogonalLoop=1;jettySize=auto;html=1;entryX=0.5;entryY=0;entryDx=0;entryDy=0;" edge="1" parent="1" source="N7yXpvZXhcVjexeJMbh7-41" target="qlI09pymciYNt9oFtkRG-2">
          <mxGeometry relative="1" as="geometry">
            <Array as="points">
              <mxPoint x="610" y="180" />
            </Array>
          </mxGeometry>
        </mxCell>
        <mxCell id="N7yXpvZXhcVjexeJMbh7-41" value="Third-party Music provider" style="rounded=1;whiteSpace=wrap;html=1;" parent="1" vertex="1">
          <mxGeometry x="630" y="150" width="120" height="60" as="geometry" />
        </mxCell>
        <mxCell id="qlI09pymciYNt9oFtkRG-3" style="edgeStyle=orthogonalEdgeStyle;rounded=0;orthogonalLoop=1;jettySize=auto;html=1;entryX=0;entryY=0.5;entryDx=0;entryDy=0;" edge="1" parent="1" source="qlI09pymciYNt9oFtkRG-2" target="N7yXpvZXhcVjexeJMbh7-27">
          <mxGeometry relative="1" as="geometry" />
        </mxCell>
        <mxCell id="qlI09pymciYNt9oFtkRG-9" style="edgeStyle=orthogonalEdgeStyle;rounded=0;orthogonalLoop=1;jettySize=auto;html=1;" edge="1" parent="1" source="qlI09pymciYNt9oFtkRG-2">
          <mxGeometry relative="1" as="geometry">
            <mxPoint x="330" y="290" as="targetPoint" />
          </mxGeometry>
        </mxCell>
        <mxCell id="qlI09pymciYNt9oFtkRG-11" style="edgeStyle=orthogonalEdgeStyle;rounded=0;orthogonalLoop=1;jettySize=auto;html=1;entryX=0;entryY=0.5;entryDx=0;entryDy=0;" edge="1" parent="1" source="qlI09pymciYNt9oFtkRG-2" target="N7yXpvZXhcVjexeJMbh7-41">
          <mxGeometry relative="1" as="geometry" />
        </mxCell>
        <mxCell id="qlI09pymciYNt9oFtkRG-12" style="edgeStyle=orthogonalEdgeStyle;rounded=0;orthogonalLoop=1;jettySize=auto;html=1;entryX=1;entryY=0.5;entryDx=0;entryDy=0;" edge="1" parent="1" source="qlI09pymciYNt9oFtkRG-2" target="N7yXpvZXhcVjexeJMbh7-35">
          <mxGeometry relative="1" as="geometry" />
        </mxCell>
        <mxCell id="qlI09pymciYNt9oFtkRG-2" value="Get Music" style="rounded=1;whiteSpace=wrap;html=1;" vertex="1" parent="1">
          <mxGeometry x="550" y="260" width="120" height="60" as="geometry" />
        </mxCell>
        <mxCell id="qlI09pymciYNt9oFtkRG-17" style="edgeStyle=orthogonalEdgeStyle;rounded=0;orthogonalLoop=1;jettySize=auto;html=1;entryX=0.5;entryY=0;entryDx=0;entryDy=0;" edge="1" parent="1" source="qlI09pymciYNt9oFtkRG-15" target="N7yXpvZXhcVjexeJMbh7-27">
          <mxGeometry relative="1" as="geometry" />
        </mxCell>
        <mxCell id="qlI09pymciYNt9oFtkRG-15" value="Live chat Receiver" style="rounded=1;whiteSpace=wrap;html=1;" vertex="1" parent="1">
          <mxGeometry x="550" y="30" width="120" height="60" as="geometry" />
        </mxCell>
        <mxCell id="qlI09pymciYNt9oFtkRG-21" style="edgeStyle=orthogonalEdgeStyle;rounded=0;orthogonalLoop=1;jettySize=auto;html=1;entryX=0.5;entryY=0;entryDx=0;entryDy=0;" edge="1" parent="1" source="qlI09pymciYNt9oFtkRG-19" target="N7yXpvZXhcVjexeJMbh7-9">
          <mxGeometry relative="1" as="geometry" />
        </mxCell>
        <mxCell id="qlI09pymciYNt9oFtkRG-19" value="Live chat Broadcast" style="rounded=1;whiteSpace=wrap;html=1;" vertex="1" parent="1">
          <mxGeometry x="550" y="-60" width="120" height="60" as="geometry" />
        </mxCell>
      </root>
    </mxGraphModel>
  </diagram>
</mxfile>
